<svg xmlns="http://www.w3.org/2000/svg" viewBox="0 0 26 26"><title>mh_phone</title><g id="Layer_2" data-name="Layer 2"><g id="Layer_1-2" data-name="Layer 1"><path d="M13,0A13,13,0,1,0,26,13,13,13,0,0,0,13,0Zm3.39,20.58A2.5,2.5,0,0,1,14,20.37a.65.65,0,0,1-.25-.18,17.47,17.47,0,0,1-4-5.67A18.12,18.12,0,0,1,8.13,7.73V7.55A2.52,2.52,0,0,1,9.57,5.45a2.46,2.46,0,0,1,2,4.48s-.07,0-.14,0a16.63,16.63,0,0,0,1,3.29,15.22,15.22,0,0,0,1.77,2.92s.07,0,.11-.07a2.48,2.48,0,0,1,3.25,1.23A2.37,2.37,0,0,1,16.39,20.58Z" style="fill:#7dc12c"/></g></g></svg>