<?xml version="1.0" encoding="iso-8859-1"?>
<!-- Generator: Adobe Illustrator 18.1.1, SVG Export Plug-In . SVG Version: 6.00 Build 0)  -->
<svg xmlns="http://www.w3.org/2000/svg" xmlns:xlink="http://www.w3.org/1999/xlink" version="1.1" id="Capa_1" x="0px" y="0px" viewBox="0 0 48.574 48.574" style="enable-background:new 0 0 48.574 48.574;" xml:space="preserve" width="512px" height="512px">
<g>
	<path d="M35.236,24.584h-6.277c-0.345,0-0.625,0.28-0.625,0.625v7.705c0,0.345,0.28,0.625,0.625,0.625h6.277   c0.345,0,0.625-0.28,0.625-0.625v-7.705C35.861,24.865,35.581,24.584,35.236,24.584z M34.611,32.29h-5.027v-6.455h5.027V32.29z" fill="#FFFFFF"/>
	<path d="M47.949,17.268h-2.746V8.862c0-0.116-0.032-0.229-0.093-0.329l-4.359-7.057   c-0.109-0.178-0.301-0.288-0.519-0.296c-0.235,0.005-0.396,0.086-0.524,0.264L34.727,8.5c-0.075,0.104-0.115,0.231-0.115,0.362   v8.406h-5.027V8.862c0-0.116-0.032-0.229-0.093-0.329l-4.36-7.058c-0.111-0.178-0.303-0.287-0.519-0.295   c-0.23,0.005-0.402,0.091-0.523,0.264l-4.982,7.058c-0.073,0.106-0.114,0.233-0.114,0.36v8.406h-5.029V8.862   c0-0.116-0.032-0.229-0.093-0.329L9.513,1.476C9.404,1.298,9.212,1.188,8.993,1.18C8.762,1.185,8.592,1.271,8.468,1.443L3.489,8.5   C3.414,8.604,3.374,8.73,3.374,8.861v8.406H0.625C0.28,17.267,0,17.548,0,17.892v7.316c0,0.345,0.28,0.625,0.625,0.625h2.748v6.455   H0.625C0.28,32.288,0,32.568,0,32.913v7.316c0,0.345,0.28,0.625,0.625,0.625h2.748v5.914c0,0.345,0.28,0.625,0.625,0.625h9.34   c0.345,0,0.625-0.28,0.625-0.625v-5.914h5.029v5.914c0,0.345,0.28,0.625,0.625,0.625h9.342c0.345,0,0.625-0.28,0.625-0.625v-5.914   h5.027v5.914c0,0.345,0.28,0.625,0.625,0.625h9.342c0.345,0,0.625-0.28,0.625-0.625v-5.914h2.746c0.345,0,0.625-0.28,0.625-0.625   v-7.315c0-0.345-0.28-0.625-0.625-0.625h-2.746v-6.455h2.746c0.345,0,0.625-0.28,0.625-0.625v-7.316   C48.574,17.549,48.294,17.268,47.949,17.268z M47.324,24.584h-2.746c-0.345,0-0.625,0.28-0.625,0.625v7.705   c0,0.345,0.28,0.625,0.625,0.625h2.746v6.066h-2.746c-0.345,0-0.625,0.28-0.625,0.625v5.914h-8.092V40.23   c0-0.345-0.28-0.625-0.625-0.625h-6.277c-0.345,0-0.625,0.28-0.625,0.625v5.914h-8.092V40.23c0-0.345-0.28-0.625-0.625-0.625   h-6.279c-0.345,0-0.625,0.28-0.625,0.625v5.914h-8.09V40.23c0-0.345-0.28-0.625-0.625-0.625H1.25v-6.066h2.748   c0.345,0,0.625-0.28,0.625-0.625v-7.705c0-0.345-0.28-0.625-0.625-0.625H1.25v-6.066h2.748c0.345,0,0.625-0.28,0.625-0.625V9.06   l4.321-6.122l3.769,6.1v8.855c0,0.345,0.28,0.625,0.625,0.625h6.279c0.345,0,0.625-0.28,0.625-0.625V9.06l4.323-6.122l3.769,6.1   v8.855c0,0.345,0.28,0.625,0.625,0.625h6.277c0.345,0,0.625-0.28,0.625-0.625V9.06l4.323-6.122l3.768,6.1v8.855   c0,0.345,0.28,0.625,0.625,0.625h2.746L47.324,24.584L47.324,24.584z" fill="#FFFFFF"/>
	<path d="M19.617,24.584h-6.279c-0.345,0-0.625,0.28-0.625,0.625v7.705c0,0.345,0.28,0.625,0.625,0.625h6.279   c0.345,0,0.625-0.28,0.625-0.625v-7.705C20.242,24.865,19.962,24.584,19.617,24.584z M18.992,32.29h-5.029v-6.455h5.029V32.29z" fill="#FFFFFF"/>
</g>
<g>
</g>
<g>
</g>
<g>
</g>
<g>
</g>
<g>
</g>
<g>
</g>
<g>
</g>
<g>
</g>
<g>
</g>
<g>
</g>
<g>
</g>
<g>
</g>
<g>
</g>
<g>
</g>
<g>
</g>
</svg>
